<svg width="2144" height="364" viewBox="0 0 2144 364" fill="none" xmlns="http://www.w3.org/2000/svg">
<path d="M389 292.5C399.5 302.5 404 317.5 400 331.5C396.5 345.5 385.5 356 371.5 360C357.5 363.5 342.5 359.5 332.5 349L200.5 217L68.5 349C57 360.5 39.5 364 24.5 357.5C10 351.5 9.23872e-07 337 9.23872e-07 320.5V40C9.23872e-07 18 18 -3.12328e-05 40 -3.12328e-05C62 -3.12328e-05 80 18 80 40V224L172 132C188 116.5 213 116.5 229 132L389 292.5ZM698.449 120.5C753.949 120.5 798.949 165.5 798.949 221C798.949 276 753.949 321 698.449 321H638.449C616.449 321 598.449 303 598.449 281C598.449 259 616.449 241 638.449 241H698.449C709.449 241 718.449 232 718.449 221C718.449 210 709.449 201 698.449 201H534.949L494.949 241L546.449 293C562.449 308.5 562.449 334 546.449 349.5C538.949 357.5 528.449 361 518.449 361C507.949 361 497.449 357.5 489.949 349.5L409.449 269.5C393.949 253.5 393.949 228.5 409.449 212.5L489.949 132.5C497.449 125 507.449 120.5 518.449 120.5H698.449ZM1209.98 124C1224.98 130 1234.98 144.5 1234.98 161V321C1234.98 343.5 1216.98 361 1194.98 361C1172.48 361 1154.48 343.5 1154.48 321V257.5L1062.98 349.5C1055.48 357 1044.98 361 1034.48 361H954.484C887.984 361 833.984 307.5 833.984 241C833.984 174.5 887.984 120.5 954.484 120.5H1034.48C1056.48 120.5 1074.48 138.5 1074.48 161C1074.48 183 1056.48 201 1034.48 201H954.484C931.984 201 913.984 219 913.984 241C913.984 263 931.984 281 954.484 281H1017.98L1166.48 132.5C1177.98 121 1194.98 117.5 1209.98 124ZM1310.02 0.499992C1332.02 0.499992 1350.02 18.5 1350.02 40.5V321C1350.02 343.5 1332.02 361 1310.02 361C1288.02 361 1270.02 343.5 1270.02 321V40.5C1270.02 18.5 1288.02 0.499992 1310.02 0.499992ZM1601.28 201L1693.28 293C1708.78 308.5 1708.78 334 1693.28 349.5C1685.28 357.5 1675.28 361 1664.78 361C1654.78 361 1644.28 357.5 1636.78 349.5L1487.78 201H1424.28C1402.28 201 1384.28 183 1384.28 161C1384.28 138.5 1402.28 120.5 1424.28 120.5H1464.28V40.5C1464.28 18.5 1482.28 0.499992 1504.78 0.499992C1526.78 0.499992 1544.78 18.5 1544.78 40.5V120.5H1664.78C1687.28 120.5 1704.78 138.5 1704.78 161C1704.78 183 1687.28 201 1664.78 201H1601.28ZM2128.75 292.5C2139.25 302.5 2143.75 317.5 2139.75 331.5C2136.25 345.5 2125.25 356 2111.25 360C2097.25 363.5 2082.25 359.5 2072.25 349L1940.25 217L1808.25 349C1796.75 360.5 1779.25 364 1764.25 357.5C1749.75 351.5 1739.75 337 1739.75 320.5V40C1739.75 18 1757.75 -3.12328e-05 1779.75 -3.12328e-05C1801.75 -3.12328e-05 1819.75 18 1819.75 40V224L1911.75 132C1927.75 116.5 1952.75 116.5 1968.75 132L2128.75 292.5Z" fill="white"/>
</svg>
