<svg width="531" height="235" viewBox="0 0 531 235" fill="none" xmlns="http://www.w3.org/2000/svg">
<path d="M246.152 212.527C229.694 167.099 230.441 65.7891 246.079 21.6112C248.045 16.0564 249.028 13.2791 248.688 11.8451C248.348 10.4146 247.77 9.59693 246.535 8.79943C245.297 8 242.676 8 237.434 8L92.7738 7.99999C-26.979 7.99999 -21.5048 225.934 92.7738 225.934L237.692 225.934C242.804 225.934 245.36 225.934 246.601 225.128C247.826 224.333 248.421 223.486 248.751 222.063C249.085 220.622 248.107 217.924 246.152 212.527Z" fill="#1E1E1E" stroke="#1E1E1E" stroke-width="10" stroke-linecap="round"/>
<path d="M267.396 227.279L427.219 227.279C546.972 227.279 562.632 8.00003 427.219 8.00001L267.396 7.99999" stroke="#1E1E1E" stroke-width="15" stroke-linecap="round"/>
</svg>
