<svg width="162" height="188" viewBox="0 0 162 188" fill="none" xmlns="http://www.w3.org/2000/svg">
<path d="M28.0662 184.628C58.7229 178.867 102.995 179.049 133.427 184.612C146.374 186.979 152.847 188.163 155.379 187.254C158.146 186.26 159.176 185.402 160.651 182.858C162 180.532 162 174.958 162 163.811L162 75.3351C162 -24.3604 -1.12846e-05 -25.8604 -4.87257e-06 75.3351L-1.26526e-05 164.329C-1.35978e-05 175.14 -1.40703e-05 180.545 1.35661 182.877C2.82546 185.401 3.90147 186.294 6.65373 187.271C9.19577 188.174 15.4859 186.992 28.0662 184.628Z" fill="#FF2E00"/>
</svg>
