<svg width="1426" height="426" viewBox="0 0 1426 426" fill="none" xmlns="http://www.w3.org/2000/svg">
<path d="M573 193L573 233" stroke="#1E1E1E" stroke-width="25" stroke-linecap="round"/>
<path d="M173 193L173 233" stroke="#1E1E1E" stroke-width="25" stroke-linecap="round"/>
<path d="M93 193L93 233" stroke="#1E1E1E" stroke-width="25" stroke-linecap="round"/>
<path d="M13 193L13 233" stroke="#1E1E1E" stroke-width="25" stroke-linecap="round"/>
<path d="M613 193.297L613 233.297" stroke="#1E1E1E" stroke-width="25" stroke-linecap="round"/>
<path d="M293 193L293 231.511" stroke="#1E1E1E" stroke-width="25" stroke-linecap="round"/>
<path d="M653 193.297L653 233.297" stroke="#1E1E1E" stroke-width="25" stroke-linecap="round"/>
<path d="M333 193L333 231.511" stroke="#1E1E1E" stroke-width="25" stroke-linecap="round"/>
<path d="M893 193L893 233" stroke="#1E1E1E" stroke-width="25" stroke-linecap="round"/>
<path d="M853 193L853 233" stroke="#1E1E1E" stroke-width="25" stroke-linecap="round"/>
<path d="M813 193L813 233" stroke="#1E1E1E" stroke-width="25" stroke-linecap="round"/>
<path d="M133 193L133 233" stroke="#1E1E1E" stroke-width="25" stroke-linecap="round"/>
<path d="M53 193L53 233" stroke="#1E1E1E" stroke-width="25" stroke-linecap="round"/>
<path d="M373 148L373 278" stroke="#1E1E1E" stroke-width="25" stroke-linecap="round"/>
<path d="M533 148L533 278" stroke="#1E1E1E" stroke-width="25" stroke-linecap="round"/>
<path d="M253 148L253 278" stroke="#1E1E1E" stroke-width="25" stroke-linecap="round"/>
<path d="M213 148L213 278" stroke="#1E1E1E" stroke-width="25" stroke-linecap="round"/>
<path d="M693 148L693 278" stroke="#1E1E1E" stroke-width="25" stroke-linecap="round"/>
<path d="M773 148L773 278" stroke="#1E1E1E" stroke-width="25" stroke-linecap="round"/>
<path d="M413 103L413 323" stroke="#1E1E1E" stroke-width="25" stroke-linecap="round"/>
<path d="M493 103L493 323" stroke="#1E1E1E" stroke-width="25" stroke-linecap="round"/>
<path d="M733 103L733 323" stroke="#1E1E1E" stroke-width="25" stroke-linecap="round"/>
<path d="M453 58L453 368" stroke="#1E1E1E" stroke-width="25" stroke-linecap="round"/>
<path d="M1213 13L1213 413" stroke="#1E1E1E" stroke-width="25" stroke-linecap="round"/>
<path d="M1293 103L1293 323" stroke="#1E1E1E" stroke-width="25" stroke-linecap="round"/>
<path d="M1133 103L1133 323" stroke="#1E1E1E" stroke-width="25" stroke-linecap="round"/>
<path d="M1253 58L1253 368" stroke="#1E1E1E" stroke-width="25" stroke-linecap="round"/>
<path d="M1173 58L1173 368" stroke="#1E1E1E" stroke-width="25" stroke-linecap="round"/>
<path d="M1373 193L1373 233" stroke="#1E1E1E" stroke-width="25" stroke-linecap="round"/>
<path d="M1413 193L1413 233" stroke="#1E1E1E" stroke-width="25" stroke-linecap="round"/>
<path d="M1333 148L1333 278" stroke="#1E1E1E" stroke-width="25" stroke-linecap="round"/>
<path d="M1053 193L1053 233" stroke="#1E1E1E" stroke-width="25" stroke-linecap="round"/>
<path d="M1093 148L1093 278" stroke="#1E1E1E" stroke-width="25" stroke-linecap="round"/>
<path d="M933 193L933 233" stroke="#1E1E1E" stroke-width="25" stroke-linecap="round"/>
<path d="M1013 148L1013 278" stroke="#1E1E1E" stroke-width="25" stroke-linecap="round"/>
<path d="M973 148L973 278" stroke="#1E1E1E" stroke-width="25" stroke-linecap="round"/>
</svg>
